# xmcd CD database file
#
# Track frame offsets:
#	150
#	19209
#	34870
#	64377
#	98545
#	120206
#	139877
#	153160
#	188188
#	217240
#
# Disc length: 4060 seconds
#
# Revision: 1
# Processed by: cddbd v1.5.2PL0 Copyright (c) Steve Scherf et al.
# Submitted via: CDex 1.51
#
DISCID=880fda0a
DTITLE=Albert King - I Wanna Get Funky
DYEAR=1900
DGENRE=Blues
TTITLE0=I Wanna Get Funky
TTITLE1=Playing On Me
TTITLE2=Walking The Back Streets And Crying
TTITLE3='Til May Back Ain't Got No Bone
TTITLE4=Flat Tire
TTITLE5=I Can't Hear Nothing But The Blues
TTITLE6=Travelin' Man
TTITLE7=Crosscut Saw
TTITLE8=That What The Blues Is All About
TTITLE9=Multimediatrack Incl.: Video, Biography And Pictures
EXTD=
EXTT0=
EXTT1=
EXTT2=
EXTT3=
EXTT4=
EXTT5=
EXTT6=
EXTT7=
EXTT8=
EXTT9=
PLAYORDER=
